<?xml version="1.0" standalone="no"?>
<!-- Calvin Studio Logo -->
 
<!DOCTYPE svg PUBLIC "-//W3C//DTD SVG 20010904//EN"
 "http://www.w3.org/TR/2001/REC-SVG-20010904/DTD/svg10.dtd">


 <svg version="1.0" xmlns="http://www.w3.org/2000/svg"
 width="130" height="130" viewBox="0 0 130 130"
 preserveAspectRatio="xMidYMid meet">

<g transform="translate(25,115) scale(0.07,-0.07)" fill="currentColor" stroke="none">


 <!-- <g transform="translate(10,133) scale(0.1, -0.1)" fill="#9f1d20" stroke="none"> -->

<!-- camera frame -->
<path d="M490 1142 c-12 -10 -37 -54 -54 -97 l-32 -80 -115 4 c-128 3 -177 -9
-201 -51 -10 -18 -13 -89 -13 -308 0 -255 2 -289 17 -312 25 -39 73 -48 238
-48 l145 1 -39 20 c-57 31 -124 103 -154 167 -24 51 -27 69 -27 167 0 129 16
172 97 260 72 79 138 108 255 113 109 5 185 -17 251 -74 l40 -34 -61 136 c-46
104 -66 138 -85 145 -13 5 -72 9 -132 9 -89 0 -112 -3 -130 -18z m249 -32 c19
-9 66 -108 57 -117 -3 -3 -26 2 -52 11 -59 20 -152 21 -224 2 -30 -8 -57 -13
-59 -10 -6 6 30 93 46 109 17 17 202 22 232 5z m-399 -191 c0 -6 -14 -28 -32
-47 -17 -20 -45 -66 -61 -102 -25 -54 -31 -80 -33 -155 -4 -106 14 -165 76
-259 l40 -61 -80 -3 c-87 -3 -116 6 -130 43 -5 13 -9 141 -10 285 l0 261 24
24 c23 23 33 25 116 25 60 0 90 -4 90 -11z"/>

<!-- camera button -->
<path d="M205 1060 c-3 -6 -3 -19 0 -30 6 -18 15 -20 80 -20 75 0 92 10 79 45
-5 11 -24 15 -79 15 -41 0 -77 -5 -80 -10z"/>

<!-- camera lense -->
<path d="M520 917 c-134 -50 -223 -176 -222 -317 0 -113 52 -211 146 -274 64
-44 128 -60 214 -54 87 6 154 40 218 111 66 72 88 135 82 235 -8 129 -72 228
-183 282 -60 30 -197 39 -255 17z m226 -28 c112 -42 184 -144 192 -274 8 -127
-57 -239 -173 -295 -41 -21 -65 -25 -135 -25 -73 0 -93 4 -142 28 -107 52
-168 157 -168 286 0 214 219 357 426 280z"/>

<!-- camera lens up shadow -->
<path d="M488 831 c-25 -16 -57 -44 -71 -63 -26 -34 -61 -117 -53 -125 2 -2
10 13 16 34 19 58 59 108 119 147 64 43 55 49 -11 7z"/>

<!-- camera lens down shadow -->
<path d="M877 665 c7 -77 -8 -130 -52 -188 -44 -57 -107 -95 -175 -106 -47 -7
-70 -6 -155 13 -23 5 -19 1 15 -15 25 -12 73 -23 108 -26 56 -5 69 -2 128 27
104 51 164 159 151 272 -9 75 -27 95 -20 23z"/>

<!-- seperator line -->
<path d="M1027 1111 c-9 -43 -7 -788 2 -821 4 -14 11 79 15 210 9 248 -3 671
-17 611z"/>

</g>
</svg>
