<?xml version="1.0" standalone="no"?>
<!-- Calvin Studio Logo -->
 
<!DOCTYPE svg PUBLIC "-//W3C//DTD SVG 20010904//EN"
 "http://www.w3.org/TR/2001/REC-SVG-20010904/DTD/svg10.dtd">
<svg version="1.0" xmlns="http://www.w3.org/2000/svg"
 width="300.000000pt" height="130.000000pt" viewBox="0 0 300.000000 130.000000"
 preserveAspectRatio="xMidYMid meet">
<metadata>
Created by potrace 1.10, written by Peter Selinger 2001-2011
</metadata>
<g transform="translate(0.000000,130.000000) scale(0.100000,-0.100000)"
fill="#4d3711" stroke="none">


<path d="M490 1142 c-12 -10 -37 -54 -54 -97 l-32 -80 -115 4 c-128 3 -177 -9
-201 -51 -10 -18 -13 -89 -13 -308 0 -255 2 -289 17 -312 25 -39 73 -48 238
-48 l145 1 -39 20 c-57 31 -124 103 -154 167 -24 51 -27 69 -27 167 0 129 16
172 97 260 72 79 138 108 255 113 109 5 185 -17 251 -74 l40 -34 -61 136 c-46
104 -66 138 -85 145 -13 5 -72 9 -132 9 -89 0 -112 -3 -130 -18z m249 -32 c19
-9 66 -108 57 -117 -3 -3 -26 2 -52 11 -59 20 -152 21 -224 2 -30 -8 -57 -13
-59 -10 -6 6 30 93 46 109 17 17 202 22 232 5z m-399 -191 c0 -6 -14 -28 -32
-47 -17 -20 -45 -66 -61 -102 -25 -54 -31 -80 -33 -155 -4 -106 14 -165 76
-259 l40 -61 -80 -3 c-87 -3 -116 6 -130 43 -5 13 -9 141 -10 285 l0 261 24
24 c23 23 33 25 116 25 60 0 90 -4 90 -11z"/>
<path d="M1027 1111 c-9 -43 -7 -788 2 -821 4 -14 11 79 15 210 9 248 -3 671
-17 611z"/>
<path d="M2111 970 c-28 -71 -67 -177 -87 -236 -33 -95 -42 -109 -78 -136 -45
-34 -125 -72 -133 -65 -2 3 1 24 8 46 14 49 9 58 -48 78 -61 21 -78 17 -114
-28 -92 -111 -186 -187 -277 -221 -42 -16 -62 2 -62 56 0 149 145 422 264 495
18 12 38 21 45 21 19 0 12 -77 -16 -161 -22 -68 -24 -82 -12 -90 8 -5 17 -9
20 -9 14 0 52 120 56 182 5 62 4 68 -21 93 -22 22 -33 26 -59 21 -69 -14 -173
-130 -243 -271 -74 -152 -96 -294 -54 -348 45 -57 120 -42 246 48 35 25 67 45
71 44 20 -3 34 4 89 47 l59 45 6 -30 c9 -42 27 -61 58 -61 26 0 112 47 125 69
10 15 26 14 26 -2 0 -20 33 -47 59 -47 24 0 96 34 124 58 16 14 17 13 17 -20
0 -22 7 -41 20 -53 18 -17 20 -16 50 16 41 46 95 151 87 172 -12 32 -33 17
-62 -43 -42 -87 -70 -107 -44 -31 8 24 8 35 -1 46 -18 22 -26 19 -40 -14 -8
-19 -27 -37 -53 -49 -52 -24 -117 -45 -122 -40 -6 5 71 224 135 386 42 107 50
136 40 147 -7 8 -16 15 -21 15 -4 0 -30 -58 -58 -130z m-435 -416 c-25 -18
-31 -12 -16 16 9 17 15 19 23 10 9 -9 7 -15 -7 -26z"/>
<path d="M205 1060 c-3 -6 -3 -19 0 -30 6 -18 15 -20 80 -20 75 0 92 10 79 45
-5 11 -24 15 -79 15 -41 0 -77 -5 -80 -10z"/>
<path d="M520 917 c-134 -50 -223 -176 -222 -317 0 -113 52 -211 146 -274 64
-44 128 -60 214 -54 87 6 154 40 218 111 66 72 88 135 82 235 -8 129 -72 228
-183 282 -60 30 -197 39 -255 17z m226 -28 c112 -42 184 -144 192 -274 8 -127
-57 -239 -173 -295 -41 -21 -65 -25 -135 -25 -73 0 -93 4 -142 28 -107 52
-168 157 -168 286 0 214 219 357 426 280z"/>
<path d="M488 831 c-25 -16 -57 -44 -71 -63 -26 -34 -61 -117 -53 -125 2 -2
10 13 16 34 19 58 59 108 119 147 64 43 55 49 -11 7z"/>
<path d="M877 665 c7 -77 -8 -130 -52 -188 -44 -57 -107 -95 -175 -106 -47 -7
-70 -6 -155 13 -23 5 -19 1 15 -15 25 -12 73 -23 108 -26 56 -5 69 -2 128 27
104 51 164 159 151 272 -9 75 -27 95 -20 23z"/>
<path d="M2432 766 c-11 -25 0 -46 24 -46 18 0 28 39 14 55 -17 21 -25 19 -38
-9z"/>
<path d="M2362 621 c-27 -60 -28 -75 -2 -101 27 -27 49 -25 101 9 47 32 56 33
40 3 -7 -14 -7 -24 4 -38 13 -18 15 -17 52 17 46 43 93 79 103 79 5 0 3 -14
-3 -30 -13 -35 -1 -63 29 -68 10 -1 46 14 79 34 33 20 81 47 108 60 46 24 56
37 38 49 -5 3 -51 -15 -103 -39 -51 -25 -94 -43 -96 -41 -2 2 7 21 20 44 22
38 22 41 6 57 -16 16 -21 16 -79 -13 l-62 -31 -17 21 -17 21 -30 -29 c-34 -34
-129 -82 -140 -71 -4 4 2 25 14 47 23 43 21 69 -6 69 -10 0 -25 -19 -39 -49z
m208 -46 c0 -8 -2 -15 -4 -15 -2 0 -11 -3 -20 -6 -10 -4 -16 -1 -16 9 0 14 13
24 33 26 4 1 7 -6 7 -14z"/>
<path d="M1596 405 c-20 -21 -11 -41 25 -54 42 -15 38 -35 -6 -27 -22 4 -35 3
-35 -3 0 -13 45 -25 65 -17 37 14 24 66 -16 66 -11 0 -19 7 -19 16 0 13 7 15
30 11 31 -7 42 6 14 17 -25 10 -42 7 -58 -9z"/>
<path d="M2210 401 c0 -14 -5 -18 -20 -14 -26 7 -50 -13 -50 -43 0 -28 12 -36
56 -40 l34 -2 0 59 c0 33 -4 59 -10 59 -5 0 -10 -9 -10 -19z m-2 -54 c4 -20
-25 -34 -40 -19 -15 15 -1 44 19 40 10 -2 19 -11 21 -21z"/>
<path d="M1782 390 c-7 -12 -8 -20 -2 -20 5 0 10 -14 10 -30 0 -33 24 -50 43
-31 8 8 7 11 -6 11 -20 0 -24 46 -5 52 9 3 8 9 -4 21 -21 21 -21 21 -36 -3z"/>
<path d="M1940 363 c0 -41 13 -55 54 -58 l36 -3 0 44 c0 33 -4 44 -16 44 -12
0 -14 -7 -9 -30 5 -23 3 -32 -10 -36 -21 -8 -29 1 -30 33 0 15 -6 28 -12 31
-9 2 -13 -6 -13 -25z"/>
<path d="M2350 345 c0 -25 5 -45 10 -45 6 0 10 20 10 45 0 25 -4 45 -10 45 -5
0 -10 -20 -10 -45z"/>
<path d="M2490 375 c-17 -20 -5 -62 20 -70 44 -14 80 41 48 73 -17 17 -53 15
-68 -3z m58 -28 c4 -20 -25 -34 -40 -19 -15 15 -1 44 19 40 10 -2 19 -11 21
-21z"/>
</g>
</svg>
